<svg id="Layer_1" data-name="Layer 1" xmlns="http://www.w3.org/2000/svg" viewBox="0 0 3000 987.6"><defs><style>.cls-1{fill:#e12991;}.cls-2{fill:#010101;}</style></defs><path class="cls-1" d="M1137.09,103.9V877.34h-51.44V516H132.05V877.34H80.62V103.9h51.43V465.1h953.6V103.9Zm-102.77,0H982.88V362.09H234.94V103.9H183.5V413h850.82ZM338,103.9H287.16V309.74H338Zm593.05,0H879.64V309.74h51.44ZM183.5,877.34h51.44V619.16H982.88V877.34h51.44V567.72H183.5Zm695.72,0h51.44V670.93H879.22Zm-592.47,0h51.43V670.93H286.75Z"/><path class="cls-2" d="M1422.94,103.88V331.3h-44.51V237.08h-92.21V331.3h-44.83V103.88h44.83V194.2h92.21V103.88Z"/><path class="cls-2" d="M1605.81,168.85V331.3H1563.9V313.11c-9.74,14.62-26.64,22.74-48.41,22.74-34.43,0-61.4-24-61.4-67.25V168.85H1496V263.4c0,22.09,13.32,33.46,32.17,33.46,20.47,0,35.73-12,35.73-40.28V168.85Z"/><path class="cls-2" d="M1885.19,231.23V331.3h-41.92V234.16c0-19.17-9.74-30.87-27.29-30.87-18.51,0-30.21,12.35-30.21,36.72V331.3h-41.91V234.16c0-19.17-9.75-30.87-27.29-30.87-17.87,0-30.54,12.35-30.54,36.72V331.3h-41.91V168.85H1686v17.22c9.1-13.64,24.36-21.76,45.16-21.76,20.14,0,35.09,8.45,44.18,23.39,10.07-14.62,26.32-23.39,48.41-23.39C1860.82,164.31,1885.19,190.62,1885.19,231.23Z"/><path class="cls-2" d="M2086.24,168.85V331.3h-41.91V312.13c-11.7,14.62-29.24,23.72-53,23.72-43.21,0-78.95-37.36-78.95-85.77s35.74-85.77,78.95-85.77c23.72,0,41.26,9.09,53,23.71V168.85Zm-41.91,81.23c0-27.29-19.17-45.81-45.16-45.81-25.67,0-44.84,18.52-44.84,45.81s19.17,45.81,44.84,45.81C2025.16,295.89,2044.33,277.37,2044.33,250.08Z"/><path class="cls-2" d="M2275.93,231.56V331.3H2234V236.76c0-22.09-13.32-33.47-32.16-33.47-20.47,0-35.74,12-35.74,40.29V331.3h-41.91V168.85h41.91v18.2c9.75-14.62,26.64-22.74,48.41-22.74C2249,164.31,2275.93,188.35,2275.93,231.56Z"/><path class="cls-2" d="M1316.47,525.36h-30.25v78.95h-44.83V376.89h94.84a75.5,75.5,0,0,1,75.7,75.37c0,28.59-17.87,54.26-43.86,66.28l50.36,85.77H1370Zm-30.25-39.31h50c16.89,0,30.86-14.94,30.86-33.79s-14-33.46-30.86-33.46h-50Z"/><path class="cls-2" d="M1437.88,396.71c0-14,15.57-26,29.54-26,14.29,0,22.12,12,22.12,26a25.83,25.83,0,0,1-51.66,0Zm4.88,45.16h41.91V604.31h-41.91Z"/><path class="cls-2" d="M1681.86,441.87V596.51c0,53.28-41.91,77.33-84.8,77.33-34.76,0-62.7-13.32-77-39.64l35.74-20.47c6.82,12.67,17.54,22.75,42.56,22.75,26.32,0,42.56-14.3,42.56-40V579c-11.37,15.27-28.91,24.69-52,24.69-46.14,0-80.9-37.36-80.9-83.17,0-45.48,34.76-83.17,80.9-83.17,23.07,0,40.61,9.42,52,24.69V441.87Zm-40.94,78.62c0-25.67-19.17-44.18-45.48-44.18S1550,494.82,1550,520.49c0,26,19.17,44.51,45.49,44.51S1640.92,546.48,1640.92,520.49Z"/><path class="cls-2" d="M1871.55,504.57v99.74h-41.91V509.77c0-22.09-13.32-33.46-32.16-33.46-20.47,0-35.74,12-35.74,40.28v87.72h-41.91V376.89h41.91v83.17c9.75-14.62,26.64-22.74,48.41-22.74C1844.59,437.32,1871.55,461.36,1871.55,504.57Z"/><path class="cls-2" d="M1963.46,482.15v67.58c0,17.54,12.67,17.87,36.72,16.57v38c-58.81,6.5-78.63-10.72-78.63-54.58V482.15h-28.26V441.87h28.26V409.05l41.91-12.67v45.49h36.72v40.28Z"/><path class="cls-2" d="M2148.63,556.88c0,35.09-30.54,52-65.3,52-32.49,0-56.53-13.65-68.23-38.66l36.39-20.47c4.55,13.32,15.59,21.12,31.84,21.12,13.32,0,22.42-4.55,22.42-14,0-23.72-83.83-10.73-83.83-67.9,0-33.14,28.27-51.66,61.73-51.66,26.32,0,49.06,12,61.73,34.44l-35.74,19.49c-4.87-10.4-14-16.57-26-16.57-10.4,0-18.84,4.55-18.84,13.32C2064.81,512,2148.63,497.1,2148.63,556.88Z"/><path class="cls-2" d="M1286.22,692.79v53.93h96.11v42.89h-96.11v87.72h-44.83V649.9h143.54v42.89Z"/><path class="cls-2" d="M1400.82,796.1c0-48.4,38-85.77,85.77-85.77s86.1,37.37,86.1,85.77-38.34,85.77-86.1,85.77S1400.82,844.51,1400.82,796.1Zm130,0c0-26.31-19.17-44.83-44.19-44.83-24.69,0-43.86,18.52-43.86,44.83s19.17,44.84,43.86,44.84C1511.61,840.94,1530.78,822.42,1530.78,796.1Z"/><path class="cls-2" d="M1744.84,714.88V877.33h-41.91v-18.2c-9.75,14.62-26.64,22.74-48.41,22.74-34.44,0-61.4-24-61.4-67.25V714.88H1635v94.54c0,22.1,13.32,33.47,32.16,33.47,20.47,0,35.74-12,35.74-40.29V714.88Z"/><path class="cls-2" d="M1934.86,777.58v99.75H1893V782.78c0-22.09-13.32-33.46-32.16-33.46-20.47,0-35.74,12-35.74,40.29v87.72h-41.91V714.88h41.91v18.2c9.75-14.62,26.64-22.75,48.41-22.75C1907.9,710.33,1934.86,734.37,1934.86,777.58Z"/><path class="cls-2" d="M2135.61,649.9V877.33H2093.7V858.16c-11.69,14.94-28.91,23.71-52.63,23.71-43.54,0-79.27-37.36-79.27-85.77s35.73-85.77,79.27-85.77c23.72,0,40.94,8.78,52.63,23.72V649.9ZM2093.7,796.1c0-27.28-19.17-45.8-44.83-45.8-26,0-45.16,18.52-45.16,45.8s19.17,45.82,45.16,45.82C2074.53,841.92,2093.7,823.4,2093.7,796.1Z"/><path class="cls-2" d="M2337.35,714.88V877.33h-41.91V858.16c-11.7,14.62-29.25,23.71-53,23.71-43.21,0-78.95-37.36-78.95-85.77s35.74-85.77,78.95-85.77c23.71,0,41.26,9.1,53,23.72V714.88Zm-41.91,81.22c0-27.28-19.17-45.8-45.17-45.8-25.66,0-44.83,18.52-44.83,45.8s19.17,45.82,44.83,45.82C2276.27,841.92,2295.44,823.4,2295.44,796.1Z"/><path class="cls-2" d="M2433.46,755.17v67.58c0,17.54,12.67,17.86,36.71,16.56v38c-58.81,6.5-78.63-10.72-78.63-54.58V755.17h-28.26V714.88h28.26V682.07l41.92-12.67v45.48h36.71v40.29Z"/><path class="cls-2" d="M2494.84,669.72c0-14,11.7-26,25.67-26a26.27,26.27,0,0,1,26,26,25.83,25.83,0,0,1-51.65,0Zm4.87,45.16h41.91V877.33h-41.91Z"/><path class="cls-2" d="M2565,796.1c0-48.4,38-85.77,85.77-85.77s86.1,37.37,86.1,85.77-38.34,85.77-86.1,85.77S2565,844.51,2565,796.1Zm130,0c0-26.31-19.17-44.83-44.19-44.83-24.69,0-43.86,18.52-43.86,44.83s19.17,44.84,43.86,44.84C2675.79,840.94,2695,822.42,2695,796.1Z"/><path class="cls-2" d="M2911.62,777.58v99.75h-41.91V782.78c0-22.09-13.32-33.46-32.16-33.46-20.47,0-35.74,12-35.74,40.29v87.72H2759.9V714.88h41.91v18.2c9.75-14.62,26.64-22.75,48.41-22.75C2884.66,710.33,2911.62,734.37,2911.62,777.58Z"/></svg>